# xmcd
#
# Track frame offsets: 
#        150
#        16519
#        36266
#        57285
#        75307
#        95384
#        116686
#        128175
#        152132
#        172748
#        186645
#        200433
#        224839
#        237218
#        255916
#
# Disc length: 3607 seconds
#
# Revision: 0
# Processed by: cddbd v1.5.2PL0 Copyright (c) Steve Scherf et al.
# Submitted via: ExactAudioCopy v0.99pb5
#
DISCID=c20e150f
DTITLE=Boo Radleys - Best Of The Boo Radleys
DYEAR=1995
DGENRE=Rock
TTITLE0=Wake Up Boo!
TTITLE1=From The Bench At Belvedere
TTITLE2=Lazarus
TTITLE3=I Hang Suspended
TTITLE4=Leaves and Sand
TTITLE5=Barney (And Me)
TTITLE6=Spun Around
TTITLE7=I've Lost The Reason
TTITLE8=Find The Answer Within
TTITLE9=It's Lulu
TTITLE10=Reaching Out From Here
TTITLE11=Stuck In Amber
TTITLE12=4am Conversation
TTITLE13=C'mon Kids
TTITLE14=Get ON The Bus
EXTD=
EXTT0=
EXTT1=
EXTT2=
EXTT3=
EXTT4=
EXTT5=
EXTT6=
EXTT7=
EXTT8=
EXTT9=
EXTT10=
EXTT11=
EXTT12=
EXTT13=
EXTT14=
PLAYORDER=
